<?xml version="1.0" encoding="UTF-8" standalone="no"?>
<svg
   height="16px"
   viewBox="0 0 16 16"
   width="16px"
   version="1.1"
   id="svg1"
   sodipodi:docname="import.svg"
   inkscape:version="1.4.4 (dcaf3e7d9e, 2026-05-05)"
   xmlns:inkscape="http://www.inkscape.org/namespaces/inkscape"
   xmlns:sodipodi="http://sodipodi.sourceforge.net/DTD/sodipodi-0.dtd"
   xmlns="http://www.w3.org/2000/svg"
   xmlns:svg="http://www.w3.org/2000/svg">
  <defs
     id="defs1" />
  <sodipodi:namedview
     id="namedview1"
     pagecolor="#505050"
     bordercolor="#eeeeee"
     borderopacity="1"
     inkscape:showpageshadow="0"
     inkscape:pageopacity="0"
     inkscape:pagecheckerboard="0"
     inkscape:deskcolor="#505050"
     inkscape:zoom="36.25"
     inkscape:cx="0.34482759"
     inkscape:cy="4.137931"
     inkscape:window-width="2560"
     inkscape:window-height="1371"
     inkscape:window-x="0"
     inkscape:window-y="0"
     inkscape:window-maximized="1"
     inkscape:current-layer="svg1" />
  <path
     d="m 1,10 v 2.972656 c 0,1.664063 1.371094,3.035156 3.03125,3.035156 h 7.9375 C 13.632812,16.007812 15,14.636719 15,12.972656 V 10 c 0,-1.5537172 -2,-1.5139819 -2,0 v 2.972656 c 0,0.589844 -0.441406,1.035156 -1.03125,1.035156 H 4.03125 C 3.445312,14.007812 3,13.5625 3,12.972656 V 10 C 3,8.5825698 1,8.5428346 1,10 Z"
     fill="white"
     id="path1"
     sodipodi:nodetypes="sssssssssssss" />
  <path
     d="m 8,13 c 0.257812,0 0.511719,-0.09766 0.707031,-0.292969 l 1.246094,-1.25 1.765625,-1.730469 C 11.910156,9.527344 12,9.285156 12,8.976562 c 0,-0.976562 -1,-1 -1,-1 -0.257812,0 -0.527344,0.128907 -0.71875,0.3125 L 9,9.570312 V 2 C 9,2 9,1 8,1 7,1 7,2 7,2 V 9.570312 L 5.71875,8.289062 C 5.527344,8.105469 5.308594,7.976562 5,7.976562 c 0,0 -1,0.023438 -1,1 0,0.308594 0.08984,0.550782 0.28125,0.75 l 1.765625,1.730469 1.246094,1.25 C 7.488281,12.902344 7.742188,13 8,13 Z"
     style="fill:#f9f9f9"
     id="path1-5" />
</svg>
