<?xml version="1.0" encoding="UTF-8" standalone="no"?>
<svg
   height="15.980469px"
   viewBox="0 0 16 15.980469"
   width="16px"
   version="1.1"
   id="svg2"
   sodipodi:docname="shortcut.svg"
   inkscape:version="1.4.4 (dcaf3e7d9e, 2026-05-05)"
   xmlns:inkscape="http://www.inkscape.org/namespaces/inkscape"
   xmlns:sodipodi="http://sodipodi.sourceforge.net/DTD/sodipodi-0.dtd"
   xmlns="http://www.w3.org/2000/svg"
   xmlns:svg="http://www.w3.org/2000/svg">
  <defs
     id="defs2" />
  <sodipodi:namedview
     id="namedview2"
     pagecolor="#505050"
     bordercolor="#eeeeee"
     borderopacity="1"
     inkscape:showpageshadow="0"
     inkscape:pageopacity="0"
     inkscape:pagecheckerboard="0"
     inkscape:deskcolor="#505050"
     inkscape:zoom="51.327898"
     inkscape:cx="8.1924259"
     inkscape:cy="9.1957789"
     inkscape:window-width="2560"
     inkscape:window-height="1371"
     inkscape:window-x="0"
     inkscape:window-y="0"
     inkscape:window-maximized="1"
     inkscape:current-layer="svg2" />
  <g
     fill="white"
     id="g2"
     transform="rotate(45,5.5646894,6.9811514)">
    <path
       d="m 7,1.972656 c -1.296875,0 -2.40625,0.839844 -2.824219,2 h 7.652344 c -0.417969,-1.160156 -1.53125,-2 -2.828125,-2 z m -5.996094,3 C 0.445312,4.972656 0,5.417969 0,5.972656 c 0,0.554688 0.445312,1 1.003906,1 H 6 c 0.554688,0 1,-0.445312 1,-1 0,-0.554687 -0.445312,-1 -1,-1 z m 9,0 C 9.445312,4.972656 9,5.417969 9,5.972656 c 0,0.554688 0.445312,1 1.003906,1 H 15 c 0.554688,0 1,-0.445312 1,-1 0,-0.554687 -0.445312,-1 -1,-1 z m -5.828125,3 C 4.589844,9.132812 5.703125,9.96875 7,9.96875 h 2 c 1.296875,0 2.414062,-0.835938 2.828125,-1.996094 H 9.035156 C 9.023438,7.972656 9.011719,7.976562 9,7.976562 H 7 c -0.011719,0 -0.023438,-0.00391 -0.035156,-0.00391 z m 0,0"
       id="path2" />
  </g>
</svg>
